<svg width="512" height="512" viewBox="0 0 512 512" fill="none" xmlns="http://www.w3.org/2000/svg" xmlns:xlink="http://www.w3.org/1999/xlink" class="h-full w-full" id="iconWithBackground"><rect id="r4" width="512" height="512" x="0" y="0" rx="35" fill="url(#linearGradient)" stroke="#000000" stroke-width="0" stroke-opacity="100%" paint-order="stroke"></rect><defs><linearGradient id="linearGradient" gradientUnits="userSpaceOnUse" gradientTransform="rotate(0)" style="transform-origin: center center;"><stop stop-color="#77A0DA"></stop><stop offset="1" stop-color="#3d78cb"></stop></linearGradient><radialGradient id="glare" cx="0" cy="0" r="1" gradientUnits="userSpaceOnUse" gradientTransform="translate(256) rotate(90) scale(512)"><stop stop-color="white"></stop><stop offset="1" stop-color="white" stop-opacity="0"></stop></radialGradient><clipPath id="clip"><use xlink:href="#r4"></use></clipPath></defs><svg xmlns="http://www.w3.org/2000/svg" xmlns:xlink="http://www.w3.org/1999/xlink" aria-hidden="true" role="img" x="128" y="128" class="iconify iconify--bx" width="256" height="256" viewBox="0 0 24 24" style="color: rgb(255, 255, 255);"><path fill="currentColor" d="M19.903 8.586a.997.997 0 0 0-.196-.293l-6-6a.997.997 0 0 0-.293-.196c-.03-.014-.062-.022-.094-.033a.991.991 0 0 0-.259-.051C13.04 2.011 13.021 2 13 2H6c-1.103 0-2 .897-2 2v16c0 1.103.897 2 2 2h12c1.103 0 2-.897 2-2V9c0-.021-.011-.04-.013-.062a.952.952 0 0 0-.051-.259c-.01-.032-.019-.063-.033-.093zM16.586 8H14V5.414L16.586 8zM6 20V4h6v5a1 1 0 0 0 1 1h5l.002 10H6z"></path><path fill="currentColor" d="M8 12h8v2H8zm0 4h8v2H8zm0-8h2v2H8z"></path></svg></svg>